<?xml version="1.0" encoding="utf-8"?>
<svg xmlns="http://www.w3.org/2000/svg" viewBox="96.7826 155.0762 350.4516 103.2512" width="350.452px" height="103.251px" preserveAspectRatio="none"><g id="Camada_2" transform="matrix(1.9306499958038328, 0, 0, 1.9306499958038328, -617.9880981445312, -420.7181701660156)" style=""><g id="Camada_1-2" data-name="Camada 1" transform="matrix(1, 0, 0, 1, 370.222839, 298.238617)"><path class="cls-1" d="m0,34.73c.28-.03,1.21,0,1.49,0h17.19c-.13-2.15-.19-10.68,5.37-16.29C33.4,9.02,46.97,2.48,50.32,1.55,47.07,1.43,5.84,9.84,0,34.73m66.09,13.07c.88,0,1.47-.18,1.79-.53.31-.35.47-.87.47-1.55s-.2-1.16-.62-1.45c-.41-.29-1.05-.43-1.91-.43h-1.5v3.96h1.77Zm-.24-6.22c1.81,0,3.13.35,3.95,1.05.83.7,1.24,1.78,1.24,3.24s-.42,2.52-1.27,3.19c-.85.67-2.14,1.01-3.89,1.01h-1.57v3.29h-2.63v-11.78h4.16Zm11.8,5.75c.9,0,1.51-.15,1.84-.44.33-.29.49-.76.49-1.39s-.17-1.07-.51-1.31c-.34-.24-.93-.35-1.77-.35h-1.97v3.49h1.92Zm5.01-1.84c0,1.89-.75,3.11-2.24,3.66l2.98,4.21h-3.24l-2.61-3.76h-1.82v3.76h-2.63v-11.78h4.47c1.83,0,3.14.31,3.92.93.78.62,1.17,1.61,1.17,2.98Zm11.19-3.91v2.34h-5.87v2.43h5.28v2.24h-5.28v2.44h6.05v2.33h-8.68v-11.78h8.5Zm13.08,4.37l-3.19,6.44h-1.57l-3.17-6.44v7.42h-2.63v-11.78h3.56l3.03,6.47,3.05-6.47h3.54v11.78h-2.63v-7.42Zm5.53-4.37h2.63v11.78h-2.63v-11.78Zm8.65,8.74c.44.54,1.03.82,1.77.82s1.33-.27,1.76-.82c.43-.55.65-1.29.65-2.23v-6.51h2.63v6.59c0,1.71-.47,3.02-1.42,3.94-.94.92-2.15,1.37-3.62,1.37s-2.68-.46-3.63-1.38c-.95-.92-1.42-2.23-1.42-3.93v-6.59h2.63v6.51c0,.94.22,1.69.66,2.23Zm20.09-4.37l-3.19,6.44h-1.57l-3.17-6.44v7.42h-2.63v-11.78h3.56l3.03,6.47,3.05-6.47h3.54v11.78h-2.63v-7.42ZM.29,7.81c0,4.31,3.36,7.81,7.5,7.81s7.5-3.5,7.5-7.81S11.94,0,7.79,0,.29,3.5.29,7.81Z" style="stroke-width: 0px; fill: rgb(255, 255, 255);"/><path class="cls-2" d="m61.45,34.65h9.95l7.84-31.05h-9.95l-7.84,31.05ZM110.88,3.6l-14.44,17.88-5.74-17.88h-10.34l9.95,31.05h6.76L122.17,3.6h-11.29Zm41.38,7.97l2.05-7.97h-31.41l-7.85,31.05h31.62l2.05-7.97h-21.75l1.03-4.1h19.04l2.06-7.97h-19.08l.76-3.05h21.48Zm-111.36,13.97l4.58-20.82c-3.43,1.82-11.57,6.15-11.85,8.61l-4.71,21.33h29.68l2.05-9.12h-19.76Z" style="fill: rgb(255, 203, 0); stroke-width: 0px;"/><path class="cls-3" d="m168.31,13.54l8.63.05-6.45-6.55-2.18,6.5Zm-2.41-.63l2.41-6.91h-9.31c.31.68,2.67,2.82,3.37,3.53.53.53,2.86,3.04,3.53,3.38Zm-6.56,27.01l13.61-17.83c.67-.86,4.31-5.49,4.5-6.09h-9.97s-8.13,23.92-8.13,23.92Zm-2.64-23.92h8.13c-.15,1.36-1.71,5.28-2.23,6.82-.74,2.22-1.49,4.39-2.25,6.64l-3.65,10.46V16Zm-8.63,22.48l1.26,1.7c1.11,1.48,2.03,2.85,3.18,4.3l2.77,3.77c.33.4.18.26.52.47,1.73-2.6,10.83-14.38,12.87-17.03l11.3-14.9c.45-.62,1.36-1.52,1.55-2.29l-9.84-9.78c-.5-.5-.76-1.13-1.73-1.13h-13.51l-.79,3.3c.19-.16.33-.26.43-.3l5.31,5.31c.47.46,1.21,1.31,1.61,1.67l-8.95-.03-.59,2.44h1.29v23.93l-4.04-12.47-1.11,4.61,2.53,7.8c-.57-.6-2.13-2.76-3.34-4.41l-.73,3.03Z" style="fill-rule: evenodd; stroke-width: 0px; fill: rgb(255, 255, 255);"/></g></g></svg>