<svg xmlns="http://www.w3.org/2000/svg" id="Camada_2" data-name="Camada 2" viewBox="0 0 154.31 53.48"><defs><style>      .cls-1, .cls-2 {        stroke-width: 0px;      }      .cls-2 {        fill: #ffcb00;      }    </style></defs><g id="Camada_1-2" data-name="Camada 1"><polygon class="cls-1" points="141.2 45.94 138.01 52.38 136.45 52.38 133.28 45.94 133.28 53.36 130.65 53.36 130.65 41.58 134.2 41.58 137.24 48.05 140.29 41.58 143.83 41.58 143.83 53.36 141.2 53.36 141.2 45.94"></polygon><path class="cls-1" d="m121.11,50.32c.44.55,1.03.82,1.77.82s1.33-.27,1.76-.82c.43-.54.65-1.29.65-2.23v-6.51h2.63v6.59c0,1.71-.47,3.02-1.42,3.94-.94.92-2.15,1.37-3.62,1.37s-2.68-.46-3.63-1.38c-.95-.92-1.42-2.23-1.42-3.93v-6.59h2.63v6.51c0,.94.22,1.69.66,2.23Z"></path><rect class="cls-1" x="112.46" y="41.58" width="2.63" height="11.78"></rect><polygon class="cls-1" points="106.93 45.94 103.75 52.38 102.18 52.38 99.01 45.94 99.01 53.36 96.38 53.36 96.38 41.58 99.94 41.58 102.97 48.05 106.02 41.58 109.56 41.58 109.56 53.36 106.93 53.36 106.93 45.94"></polygon><polygon class="cls-1" points="93.85 41.58 93.85 43.92 87.99 43.92 87.99 46.35 93.26 46.35 93.26 48.59 87.99 48.59 87.99 51.03 94.04 51.03 94.04 53.36 85.36 53.36 85.36 41.58 93.85 41.58"></polygon><path class="cls-1" d="m80.42,49.15c1.49-.55,2.24-1.77,2.24-3.66,0-1.37-.39-2.37-1.17-2.98-.78-.62-2.09-.93-3.92-.93h-4.47v11.78h2.63v-3.76h1.82l2.61,3.76h3.24l-2.98-4.21Zm-.93-2.26c-.33.29-.94.44-1.84.44h-1.92v-3.49h1.97c.84,0,1.43.12,1.77.35.34.24.51.67.51,1.31s-.16,1.1-.49,1.39Z"></path><path class="cls-1" d="m69.81,42.63c-.83-.7-2.14-1.05-3.95-1.05h-4.16v11.78h2.63v-3.29h1.57c1.74,0,3.04-.34,3.88-1.01.85-.67,1.27-1.74,1.27-3.19s-.41-2.53-1.24-3.24Zm-1.93,4.64c-.31.35-.91.53-1.79.53h-1.77v-3.96h1.5c.87,0,1.5.14,1.91.43.41.29.62.77.62,1.45s-.16,1.2-.47,1.55Z"></path><g><polygon class="cls-2" points="110.88 3.6 96.44 21.48 90.7 3.6 80.36 3.6 90.31 34.65 97.07 34.65 122.17 3.6 110.88 3.6"></polygon><polygon class="cls-2" points="152.26 11.57 154.31 3.6 122.9 3.6 115.06 34.65 146.68 34.65 148.73 26.68 126.98 26.68 128.01 22.58 147.05 22.58 149.1 14.61 130.02 14.61 130.78 11.57 152.26 11.57"></polygon><path class="cls-2" d="m40.9,25.53l4.58-20.82c-3.43,1.82-11.57,6.16-11.85,8.61l-4.71,21.33h29.68l2.05-9.12h-19.76Z"></path><polygon class="cls-2" points="61.45 34.65 71.4 34.65 79.24 3.6 69.29 3.6 61.45 34.65"></polygon><path class="cls-1" d="m0,34.73c.28-.03,1.21,0,1.49,0h17.19c-.13-2.15-.19-10.68,5.37-16.29C33.4,9.02,46.97,2.48,50.32,1.55,47.07,1.43,5.84,9.84,0,34.73Z"></path><path class="cls-1" d="m.29,7.81c0,4.31,3.36,7.81,7.5,7.81s7.5-3.5,7.5-7.81S11.94,0,7.79,0,.29,3.5.29,7.81Z"></path></g></g></svg>